<svg width="180.249" height="180.249" xmlns="http://www.w3.org/2000/svg" xmlns:svg="http://www.w3.org/2000/svg">
 <g class="layer" display="inline">
  <title>Layer 1</title>
  <rect data-name="Rectangle 17474" fill="#f4f4f4" height="180.25" id="Rectangle_17474" rx="30" transform="matrix(1 0 0 0.978052 1506.15 -2567.96)" width="180.25" x="-1506.14" y="2626.59"/>
  <path d="m1,136.64l180.25,0l0,13.61a30,30 0 0 1 -30,30l-120.25,0a30,30 0 0 1 -30,-30l0,-13.61z" data-name="Rectangle 17475" fill="#00a8b5" id="Rectangle_17475"/>
  <g data-name="Group 7353" id="Group_7353">
   <g data-name="Group 7345" id="Group_7345" transform="translate(-90 155) matrix(1 0 0 1 129.387 -150.284)">
    <g data-name="Group 7344" id="Group_7344">
     <g data-name="Group 7327" id="Group_7327" transform="translate(7.749 28.658)">
      <g data-name="Group 7321" id="Group_7321" transform="translate(6.427 41.434)">
       <path d="m-1445.36,2574.88a12.25,12.25 0 0 0 12.24,12.25a12.25,12.25 0 0 0 12.25,-12.25a12.24,12.24 0 0 0 -12.25,-12.25a12.24,12.24 0 0 0 -12.24,12.25z" data-name="Path 13267" fill="#2c272e" id="Path_13267" transform="translate(1445.36 -2562.635)"/>
       <path d="m-1440.6,2576.21a8.82,8.82 0 0 0 8.81,8.82a8.82,8.82 0 0 0 8.82,-8.82a8.82,8.82 0 0 0 -8.81,-8.82a8.82,8.82 0 0 0 -8.82,8.82z" data-name="Path 13268" fill="#3a393a" id="Path_13268" transform="translate(1444.034 -2563.961)"/>
       <path d="m-1438.57,2576.77a7.35,7.35 0 0 0 7.35,7.35a7.35,7.35 0 0 0 7.35,-7.35a7.35,7.35 0 0 0 -7.35,-7.35a7.35,7.35 0 0 0 -7.35,7.35z" data-name="Path 13269" fill="#d0d2d3" id="Path_13269" transform="translate(1443.466 -2564.53)"/>
      </g>
      <g data-name="Group 7322" id="Group_7322" transform="translate(75.529 41.434)">
       <path d="m-1349.53,2574.88a12.25,12.25 0 0 0 12.24,12.25a12.25,12.25 0 0 0 12.25,-12.25a12.24,12.24 0 0 0 -12.24,-12.25a12.25,12.25 0 0 0 -12.25,12.25z" data-name="Path 13270" fill="#2c272e" id="Path_13270" transform="translate(1349.527 -2562.635)"/>
       <path d="m-1344.77,2576.21a8.82,8.82 0 0 0 8.81,8.82a8.82,8.82 0 0 0 8.82,-8.82a8.82,8.82 0 0 0 -8.81,-8.82a8.82,8.82 0 0 0 -8.82,8.82z" data-name="Path 13271" fill="#3a393a" id="Path_13271" transform="translate(1348.201 -2563.961)"/>
       <path d="m-1342.74,2576.77a7.35,7.35 0 0 0 7.35,7.35a7.35,7.35 0 0 0 7.35,-7.35a7.35,7.35 0 0 0 -7.35,-7.35a7.35,7.35 0 0 0 -7.35,7.35z" data-name="Path 13272" fill="#d0d2d3" id="Path_13272" transform="translate(1347.633 -2564.53)"/>
      </g>
      <g data-name="Group 7323" id="Group_7323" transform="translate(79.717 32.795)">
       <path d="m-1343.72,2551.04s19.18,-4.29 21.43,15.57l-17.37,0l-4.06,-15.57z" data-name="Path 13273" fill="#2c272e" id="Path_13273" transform="translate(1343.719 -2550.654)"/>
       <path d="m-1339.04,2564.54l-3.55,-13.6c-0.71,0.09 -1.12,0.19 -1.12,0.19l4.06,15.56l17.37,0c-0.09,-0.75 -0.2,-1.46 -0.34,-2.14l-16.42,-0.01z" data-name="Path 13274" fill="#be1e2d" id="Path_13274" transform="translate(1343.719 -2550.733)"/>
      </g>
      <path d="m-1369.03,2556.4a5.72,5.72 0 0 1 -0.65,0.5c-4.15,2.78 -10.4,1.96 -15.16,1.96l-69.34,0c-1.42,-19.74 13.32,-25.45 13.32,-25.45l27.35,1.2c-10.94,20.23 -0.47,19.25 -0.47,19.25l30.68,0s11.22,-2.21 -4.57,-21.16c0,0 -3.38,-3.38 2.03,-6.32c0,0 -12.86,-20.98 8.35,-21.21c0,0 2.03,-0.16 2.06,5.36c0.03,5.05 -2.02,5.47 -2.06,5.47c-1.04,0.2 -2.05,-0.23 -2.98,0.6c-1.94,1.76 0.22,4.7 1.37,6.23a59.87,59.87 0 0 1 4.97,7.84a63.39,63.39 0 0 1 6.66,18.31c0.5,2.64 0.52,5.54 -1.56,7.42z" data-name="Path 13275" fill="#dd4a48" id="Path_13275" transform="translate(1454.273 -2505.173)"/>
      <path d="m-1352.51,2505.17c-21.21,0.23 -8.35,21.21 -8.35,21.21c-5.41,2.93 -2.03,6.32 -2.03,6.32c15.8,18.95 4.57,21.16 4.57,21.16l-2.39,2.53s18.09,-3.42 0.86,-23.7c0,0 -3.39,-3.38 2.03,-6.31c0,0 -10.9,-17.79 3.93,-20.79l1.38,-0.42z" data-name="Path 13276" fill="#d63930" id="Path_13276" transform="translate(1429.294 -2505.174)"/>
      <path d="m-1434.18,2544.46l-6.68,-0.12s-14.74,5.71 -13.31,25.45l4.4,0c-1.37,-19.35 13.56,-24.42 15.59,-25.33z" data-name="Path 13277" fill="#d63930" id="Path_13277" transform="translate(1454.273 -2516.096)"/>
      <path d="m-1350.86,2568.02c0.01,-0.03 0.02,-0.06 0.03,-0.09a0.88,0.88 0 0 1 -0.03,0.09z" data-name="Path 13278" fill="#0a263f" id="Path_13278" transform="translate(1425.428 -2522.677)"/>
      <g data-name="Group 7324" id="Group_7324" transform="translate(35.868 44.706)">
       <path d="m-1396.98,2573.74l24.77,0a8.1,8.1 0 0 0 6.54,-6.56a5.03,5.03 0 0 1 -3.75,3.98l-30.68,0a4.14,4.14 0 0 1 -4.43,-3.8a6.91,6.91 0 0 0 2.43,4.78a6.91,6.91 0 0 0 5.12,1.6z" data-name="Path 13279" fill="#3a393a" id="Path_13279" transform="translate(1404.53 -2567.173)"/>
       <path d="m-1368.02,2570.64a8.08,8.08 0 0 1 -4.2,2.15l-24.77,0a7.3,7.3 0 0 1 -5.98,-2.42a4.37,4.37 0 0 1 -1.57,-2.95a6.91,6.91 0 0 0 2.43,4.78a6.91,6.91 0 0 0 5.12,1.6l24.77,0a8.07,8.07 0 0 0 6.38,-5.93a4.85,4.85 0 0 1 -2.18,2.77z" data-name="Path 13280" fill="#2c272e" id="Path_13280" transform="translate(1404.53 -2567.242)"/>
      </g>
      <path d="m-1440.75,2548.1l25.95,-0.05c0.4,-0.8 0.82,-1.64 1.3,-2.52l-27.35,-1.2s-14.06,5.45 -13.39,24.09c0.64,-16.56 13.49,-20.32 13.49,-20.32z" data-name="Path 13281" fill="#be1e2d" id="Path_13281" transform="translate(1454.27 -2516.096)"/>
      <g data-name="Group 7325" id="Group_7325" transform="translate(58.833 4.751)">
       <circle cx="2.34" cy="2.34" data-name="Ellipse 231" fill="#d63930" id="Ellipse_231" r="2.34" transform="translate(7.04 1.175)"/>
       <circle cx="2.34" cy="2.34" data-name="Ellipse 232" fill="#d0d2d3" id="Ellipse_232" r="2.34" transform="translate(7.122 0)"/>
       <path d="m-1363.98,2513.43l-8.38,5.68a1.69,1.69 0 0 0 0.14,2.12c0.95,0.95 2.19,-0.29 2.19,-0.29l7.58,-5.47s0.43,-1.97 -1.53,-2.04z" data-name="Path 13282" fill="#ee4036" id="Path_13282" transform="translate(1372.681 -2512.227)"/>
       <path d="m-1369.87,2519.88s-1.24,1.24 -2.19,0.29a1.55,1.55 0 0 1 -0.38,-0.6a1.63,1.63 0 0 0 0.22,1.99c0.95,0.95 2.19,-0.29 2.19,-0.29l7.58,-5.47a2.23,2.23 0 0 0 -0.1,-1.2l-7.32,5.28z" data-name="Path 13283" fill="#be1e2d" id="Path_13283" transform="translate(1372.681 -2512.553)"/>
      </g>
      <ellipse cx="1.55" cy="4.68" data-name="Ellipse 233" fill="#bbbdbf" id="Ellipse_233" rx="1.55" ry="4.68" transform="translate(75.221 0.718)"/>
      <g data-name="Group 7326" id="Group_7326" transform="translate(7.729 25.084)">
       <path d="m-1409.6,2539.96l-31.78,0a2.18,2.18 0 0 0 -2.17,2.18a2.18,2.18 0 0 0 2.17,2.17l31.78,0a2.18,2.18 0 0 0 2.18,-2.17a2.18,2.18 0 0 0 -2.18,-2.18z" data-name="Path 13284" fill="#3a393a" id="Path_13284" transform="translate(1443.554 -2539.961)"/>
       <path d="m-1408,2540.95a2.15,2.15 0 0 1 -2.14,2.09l-30.7,0a2.15,2.15 0 0 1 -2.14,-2.09a2.17,2.17 0 0 0 -0.57,1.46l0,0a2.18,2.18 0 0 0 2.17,2.18l31.78,0a2.18,2.18 0 0 0 2.18,-2.18l0,0a2.16,2.16 0 0 0 -0.57,-1.46l-0.01,0z" data-name="Path 13285" fill="#2c272e" id="Path_13285" transform="translate(1443.554 -2540.237)"/>
      </g>
      <path d="m-1412.41,2571.73c-1.39,-25 -20.89,-20 -20.89,-20c17.82,-0.55 19.3,14.16 19.2,20l1.69,0z" data-name="Path 13286" fill="#be1e2d" id="Path_13286" transform="translate(1448.423 -2518.048)"/>
      <path d="m-1354.31,2535.86s13.43,17.59 7.4,25.06c-0.01,0 5.06,-6.24 -7.4,-25.06z" data-name="Path 13287" fill="#be1e2d" id="Path_13287" transform="translate(1426.391 -2513.733)"/>
      <path d="m-1352.64,2510.64c0,-2.51 0.66,-4.61 1.55,-5.21c-1.08,0.17 -1.94,2.44 -1.94,5.21s0.86,5.04 1.94,5.21c-0.89,-0.6 -1.55,-2.7 -1.55,-5.21z" data-name="Path 13288" fill="#be1e2d" id="Path_13288" transform="translate(1426.031 -2505.243)"/>
      <path d="m-1338.69,2564.15q-0.44,-2.32 -1.07,-4.6c0.61,10.9 -7.12,13.81 -11.35,14.59c3.63,0.04 7.4,-0.19 10.21,-2.07a5.73,5.73 0 0 0 0.65,-0.5c2.08,-1.88 2.05,-4.78 1.56,-7.42z" data-name="Path 13289" fill="#d63930" id="Path_13289" transform="translate(1425.497 -2520.341)"/>
     </g>
     <g data-name="Group 7341" id="Group_7341" transform="translate(33.438 0)">
      <g data-name="Group 7328" id="Group_7328" transform="translate(10.125 2.761)">
       <path d="m-1402.71,2484.38a6.1,6.1 0 0 1 -1.44,-3.44l-0.43,-4.97a6.17,6.17 0 0 1 5.6,-6.66l0.33,-0.03a6.17,6.17 0 0 1 6.66,5.6l0.43,4.97a6.1,6.1 0 0 1 -0.1,1.75l-2.09,0.25s-0.19,0.98 1.43,1.53c0,0 -0.83,2.21 -4.61,2.44c0,0 -2.15,-0.49 -2.88,3.09l-3.37,-0.94s1.21,-2.2 0.47,-3.59z" data-name="Path 13290" fill="#fdd5a9" id="Path_13290" transform="translate(1404.605 -2469.259)"/>
       <path d="m-1397.53,2485.98c-1.05,-1.62 0.47,-3.72 1.12,-5.21c0.14,-0.33 1.57,-4.73 1.16,-4.67l-9.35,1.29a4.51,4.51 0 0 0 0.02,0.49l0.43,4.97a6.1,6.1 0 0 0 1.44,3.44c0.74,1.4 -0.48,3.58 -0.48,3.58l3.37,0.94c0.73,-3.57 2.88,-3.09 2.88,-3.09a6.33,6.33 0 0 0 3.5,-1.12c-1.17,0.48 -3.08,0.94 -4.09,-0.62z" data-name="Path 13291" fill="#fdcb94" id="Path_13291" transform="translate(1404.603 -2471.166)"/>
       <path d="m-1387.33,2479.33l0.86,1.32l1.03,1.59c0.12,0.18 0.37,0.45 0.34,0.68c-0.04,0.27 -0.41,0.27 -0.62,0.29l-0.94,0.12l-1.21,0.14l0.54,-4.14z" data-name="Path 13292" fill="#fdd5a9" id="Path_13292" transform="translate(1399.937 -2472.067)"/>
      </g>
      <g data-name="Group 7334" id="Group_7334" transform="translate(28.407 74.099)">
       <g data-name="Group 7329" id="Group_7329">
        <path d="m-1377.76,2568.5s-0.96,0.18 -1.14,3.33l12.45,0s1.54,-3.77 -2.45,-2.89c0,0 -3.47,0.7 -3.69,-0.75l-5.17,0.31z" data-name="Path 13293" fill="#be1e2d" id="Path_13293" transform="translate(1379.151 -2568.192)"/>
        <path d="m-1366.17,2570.81c-2.32,0.26 -13.12,1.29 -8.7,-2.36l-0.84,0l-2.04,0.12s-0.96,0.18 -1.14,3.33l12.46,0a4.66,4.66 0 0 0 0.26,-1.09z" data-name="Path 13294" fill="#dd4a48" id="Path_13294" transform="translate(1379.151 -2568.264)"/>
        <rect data-name="Rectangle 17476" fill="#3a393a" height="0.43" id="Rectangle_17476" rx="0.21" transform="translate(0 3.485)" width="12.94"/>
       </g>
       <g data-name="Group 7333" id="Group_7333" transform="translate(6.545 0.495)">
        <g data-name="Group 7330" id="Group_7330">
         <circle cx="0.32" cy="0.32" data-name="Ellipse 234" fill="#ee4036" id="Ellipse_234" r="0.32" transform="translate(0 0.703)"/>
         <path d="m-1369.78,2570.04a0.15,0.15 0 0 1 -0.08,-0.02a0.15,0.15 0 0 1 -0.04,-0.21l0.56,-0.86a0.15,0.15 0 0 1 0.2,-0.05a0.15,0.15 0 0 1 0.07,0.1a0.15,0.15 0 0 1 -0.02,0.11l-0.57,0.86a0.15,0.15 0 0 1 -0.12,0.07z" data-name="Path 13295" fill="#0a263f" id="Path_13295" transform="translate(1370.105 -2568.879)"/>
        </g>
        <g data-name="Group 7331" id="Group_7331" transform="translate(0.925 0.167)">
         <circle cx="0.32" cy="0.32" data-name="Ellipse 235" fill="#ee4036" id="Ellipse_235" r="0.32" transform="translate(0 0.703)"/>
         <path d="m-1368.5,2570.27a0.15,0.15 0 0 1 -0.08,-0.02a0.15,0.15 0 0 1 -0.05,-0.21l0.57,-0.86a0.15,0.15 0 0 1 0.2,-0.05a0.15,0.15 0 0 1 0.05,0.2l-0.57,0.87a0.15,0.15 0 0 1 -0.12,0.06l0,0.01z" data-name="Path 13296" fill="#0a263f" id="Path_13296" transform="translate(1368.822 -2569.11)"/>
        </g>
        <g data-name="Group 7332" id="Group_7332" transform="translate(1.887 0.167)">
         <circle cx="0.32" cy="0.32" data-name="Ellipse 236" fill="#ee4036" id="Ellipse_236" r="0.32" transform="translate(0 0.703)"/>
         <path d="m-1367.16,2570.27a0.15,0.15 0 0 1 -0.08,-0.02a0.15,0.15 0 0 1 -0.04,-0.21l0.56,-0.86a0.15,0.15 0 0 1 0.21,-0.05a0.15,0.15 0 0 1 0.04,0.21l-0.57,0.86a0.15,0.15 0 0 1 -0.12,0.07z" data-name="Path 13297" fill="#0a263f" id="Path_13297" transform="translate(1367.488 -2569.11)"/>
        </g>
       </g>
      </g>
      <g data-name="Group 7335" id="Group_7335" transform="translate(0 45.013)">
       <path d="m-1406.75,2527.85l-11.79,0s-1.42,7.64 5.84,8.72l11.55,0s16.88,-1.47 11.98,20.92l5.83,0s7.93,-25.88 -23.41,-29.64z" data-name="Path 13298" fill="#3a393a" id="Path_13298" transform="translate(1418.647 -2527.855)"/>
       <path d="m-1418.53,2527.85s-1.42,7.64 5.84,8.72l11.55,0s16.88,-1.47 11.98,20.92l2.8,0c5.71,-23.14 -13.75,-23.41 -13.75,-23.41c-11.68,0.08 -8.9,-6.23 -8.9,-6.23l-9.52,0z" data-name="Path 13299" fill="#2c272e" id="Path_13299" transform="translate(1418.647 -2527.855)"/>
      </g>
      <g data-name="Group 7336" id="Group_7336" transform="translate(0.099 20.901)">
       <path d="m-1406.85,2518.53l-11.65,0c-0.14,0 0.9,-8.12 1.06,-8.94a28.52,28.52 0 0 1 3.97,-10.67a10.98,10.98 0 0 1 4.51,-4.01a5.22,5.22 0 0 1 6.2,1.32c0.84,0.93 0.74,2.46 0.45,3.58a21.09,21.09 0 0 1 -1.78,3.68s-2.61,4.5 -2.76,15.04z" data-name="Path 13300" fill="#be1e2d" id="Path_13300" transform="translate(1418.509 -2494.416)"/>
       <path d="m-1411.7,2504.36c1.86,-8.93 6.6,-8.94 8.54,-8.54a5.2,5.2 0 0 0 -5.8,-0.91a10.98,10.98 0 0 0 -4.5,4.01a28.51,28.51 0 0 0 -3.97,10.67c-0.16,0.81 -1.21,8.94 -1.07,8.94l9.52,0c-5.76,-4.49 -2.72,-14.17 -2.72,-14.17z" data-name="Path 13301" fill="#a81826" id="Path_13301" transform="translate(1418.51 -2494.416)"/>
      </g>
      <g data-name="Group 7338" id="Group_7338" transform="translate(11.771 23.378)">
       <g data-name="Group 7337" id="Group_7337" transform="translate(21.845 11.662)">
        <path d="m-1372.03,2515.43c-0.09,-0.2 2.77,-1.19 2.97,-1.23c1.74,-0.42 3.58,-0.15 4.48,1.57a2.58,2.58 0 0 1 -1.09,3.42a1.29,1.29 0 0 1 -1.42,0.16a1.29,1.29 0 0 1 -0.69,-1.24s-0.04,-1.53 -1.27,-1.11l-2,0.62l-0.98,-2.19z" data-name="Path 13302" fill="#3a393a" id="Path_13302" transform="translate(1372.027 -2514.024)"/>
        <path d="m-1364.58,2516.12c-0.01,-0.02 -0.02,-0.03 -0.03,-0.05a3.92,3.92 0 0 0 -0.15,0.46a1.56,1.56 0 0 1 -0.8,0.96a1.22,1.22 0 0 1 -1.21,-0.1c-0.27,-0.2 -0.44,-0.53 -0.74,-0.68c-0.49,-0.26 -1.07,0.03 -1.61,0.09a1.88,1.88 0 0 1 -1.38,-0.43a1.88,1.88 0 0 1 -0.63,-1.06c-0.52,0.21 -0.93,0.4 -0.89,0.48l0.97,2.19l2.01,-0.62c1.23,-0.42 1.27,1.11 1.27,1.11a1.29,1.29 0 0 0 0.69,1.24a1.29,1.29 0 0 0 1.41,-0.16a2.58,2.58 0 0 0 1.09,-3.43z" data-name="Path 13303" fill="#2c272e" id="Path_13303" transform="translate(1372.027 -2514.381)"/>
       </g>
       <path d="m-1398,2498.68s2.58,16.58 17.81,11.48l1.43,3.27s-16.14,8.24 -22.93,-12.24l3.69,-2.51z" data-name="Path 13304" fill="#3a393a" id="Path_13304" transform="translate(1402.145 -2498.082)"/>
       <path d="m-1379.08,2513.56c-2.23,0.96 -12.36,4.59 -19.14,-5.43l2.58,-2.2q-0.25,-0.43 -0.48,-0.87l-2.63,2.26a28.85,28.85 0 0 1 -2.57,-5.51l-0.37,0.25c6.79,20.48 22.93,12.24 22.93,12.24l-0.32,-0.74z" data-name="Path 13305" fill="#2c272e" id="Path_13305" transform="translate(1402.145 -2498.956)"/>
       <path d="m-1399.85,2507.67l4.44,-3.61l-1.38,-2.91c-0.49,-1.03 -0.83,-2.74 -2.04,-3.19a2.92,2.92 0 0 0 -2.71,0.65c-1.61,1.7 -0.35,3.97 0.35,5.7l1.34,3.36z" data-name="Path 13306" fill="#be1e2d" id="Path_13306" transform="translate(1402.322 -2497.851)"/>
       <path d="m-1399.88,2504.19c-0.7,-1.74 -1.96,-4.01 -0.35,-5.7a2.52,2.52 0 0 1 1.05,-0.61a3,3 0 0 0 -2.36,0.75c-1.61,1.69 -0.34,3.96 0.35,5.69l1.34,3.36l1.03,-0.84l-1.06,-2.65z" data-name="Path 13307" fill="#a81826" id="Path_13307" transform="translate(1402.322 -2497.851)"/>
      </g>
      <g data-name="Group 7340" id="Group_7340" transform="translate(5.617)">
       <g data-name="Group 7339" id="Group_7339">
        <path d="m-1402.19,2465.44a10.8,10.8 0 0 1 7.79,2.71a8.3,8.3 0 0 1 1.53,2.04a15.43,15.43 0 0 1 0.98,2.79l-6.29,1.15c-0.02,0 -0.34,3.33 -0.37,3.57a5.23,5.23 0 0 1 -2.18,3.8c-2.37,1.6 -5.12,0.86 -7.08,-1.01c-3.52,-3.36 -4.61,-10.54 0.05,-13.47a11.19,11.19 0 0 1 5.57,-1.58z" data-name="Path 13308" fill="#2c272e" id="Path_13308" transform="translate(1410.857 -2465.429)"/>
        <path d="m-1398.18,2474.22l0,0c-0.05,0.26 -0.91,4.1 -4.81,4.21c-4.03,0.11 -5.41,-6.26 -5.41,-6.26s-1.01,-4.09 4.33,-6.46a10.48,10.48 0 0 0 -3.68,1.39c-4.66,2.93 -3.57,10.1 -0.05,13.46c1.96,1.87 4.71,2.61 7.08,1.01a5.23,5.23 0 0 0 2.18,-3.79c0.02,-0.24 0.32,-3.33 0.36,-3.56z" data-name="Path 13309" fill="#3a393a" id="Path_13309" transform="translate(1410.857 -2465.508)"/>
        <path d="m-1393.28,2477.04s15.7,0.2 6.29,-1.16l-6.29,1.16z" data-name="Path 13310" fill="#2c272e" id="Path_13310" transform="translate(1405.953 -2468.347)"/>
        <path d="m-1403.66,2468.09c-3.85,-0.39 -5.85,1.4 -6.52,2.17a6.37,6.37 0 0 1 2.62,-3.24a11.19,11.19 0 0 1 5.56,-1.59a10.8,10.8 0 0 1 7.79,2.71a8.31,8.31 0 0 1 1.53,2.04a15.44,15.44 0 0 1 0.98,2.79l-6.27,1.15l-0.02,0s-0.81,-5.53 -5.67,-6.03z" data-name="Path 13311" fill="#dd4a48" id="Path_13311" transform="translate(1410.669 -2465.429)"/>
        <path d="m-1403.89,2465.71a10.48,10.48 0 0 0 -3.68,1.39a6.37,6.37 0 0 0 -2.62,3.24a6.42,6.42 0 0 1 2.73,-1.79a7.78,7.78 0 0 1 3.57,-2.84z" data-name="Path 13312" fill="#d63930" id="Path_13312" transform="translate(1410.669 -2465.508)"/>
       </g>
      </g>
     </g>
     <g data-name="Group 7343" id="Group_7343" transform="translate(0 22.776)">
      <g data-name="Group 7342" id="Group_7342">
       <rect data-name="Rectangle 17477" fill="#3a393a" height="30.96" id="Rectangle_17477" rx="4.47" width="30.96"/>
       <path d="m-1437.48,2497.1a4.65,4.65 0 0 1 1.41,3.33l0,21.62a4.68,4.68 0 0 1 -4.66,4.67l-21.62,0a4.68,4.68 0 0 1 -0.71,-0.06a4.65,4.65 0 0 0 3.25,1.33l21.62,0a4.68,4.68 0 0 0 4.67,-4.66l0,-21.62a4.68,4.68 0 0 0 -3.96,-4.61z" data-name="Path 13313" fill="#2c272e" id="Path_13313" transform="translate(1464.473 -2497.039)"/>
      </g>
     </g>
    </g>
   </g>
   <g id="svg_13" transform="translate(-65.2038 51.4107) translate(58.6549 -20.471) matrix(0.0369127 0 0 0.0303048 31.5471 -10.1836)">
    <path d="m870,389c0.91,0.49 1.83,0.98 2.77,1.49c26.04,14.87 46.77,39.01 56.54,67.39c0.23,0.65 0.46,1.31 0.7,1.99c5.77,17.88 5.44,36.04 5.5,54.62c0.02,3.48 0.05,6.96 0.08,10.44c0,1.07 0,2.14 -0.01,3.24c0.01,0.98 0.02,1.97 0.04,2.99c0,0.86 0,1.73 0,2.62c0.22,2.27 0.22,2.27 1.63,4c2.19,1.53 3.44,1.6 6.1,1.6c0.88,0.01 1.76,0.02 2.67,0.04c0.95,-0.01 1.9,-0.01 2.89,-0.01c0.99,0.01 1.98,0.02 3.01,0.03c3.19,0.03 6.39,0.05 9.58,0.06c31.91,0.11 62.1,3.87 86.5,26.5c0.85,0.77 1.7,1.54 2.57,2.33c18.21,17.26 29.17,41.87 30.62,66.89c0.07,3.5 0.08,6.99 0.07,10.48c0,1.35 0.01,2.69 0.01,4.03c0.01,3.66 0.01,7.32 0.01,10.97c-0.01,3.96 0,7.92 0.01,11.88c0.01,7.74 0.01,15.48 0.01,23.22c0,6.29 0,12.59 0.01,18.89c0,0.9 0,1.79 0,2.72c0,1.82 0,3.65 0,5.48c0.01,17.09 0.01,34.19 0,51.28c0,15.61 0.01,31.23 0.03,46.84c0.02,16.06 0.03,32.11 0.02,48.17c0,9.01 0,18.01 0.02,27.02c0.01,7.66 0.01,15.33 0,23c-0.01,3.9 -0.01,7.81 0,11.71c0.11,36.31 0.11,36.31 -6.07,52.78c-0.25,0.69 -0.5,1.38 -0.76,2.1c-4.1,10.76 -10.1,20.43 -17.55,29.21c-0.58,0.72 -1.16,1.45 -1.76,2.2c-16.74,20.11 -42.33,30.7 -67.84,33.52c-12.63,1.03 -25.38,0.69 -38.04,0.66c-4.67,-0.01 -9.35,0 -14.03,0c-9.13,0.01 -18.27,0.01 -27.41,-0.01c-10.65,-0.01 -21.31,-0.01 -31.97,-0.01c-19.02,0.01 -38.05,0 -57.07,-0.02c-18.43,-0.02 -36.85,-0.03 -55.28,-0.02c-20.11,0 -40.22,0 -60.33,-0.01c-2.15,0 -4.29,0 -6.44,0c-1.06,0 -2.11,0 -3.2,-0.01c-7.42,0 -14.83,0 -22.25,0c-9.04,0.01 -18.09,0 -27.13,-0.01c-4.61,-0.01 -9.21,-0.02 -13.82,-0.01c-4.23,0 -8.46,0 -12.69,-0.01c-1.51,-0.01 -3.03,-0.01 -4.55,0c-27.7,0.07 -55.35,-5.73 -76.19,-25.27c-0.5,-0.46 -1,-0.91 -1.52,-1.39c-17.68,-16.2 -31.25,-39.4 -32.6,-63.86c-0.09,-2.75 -0.15,-5.5 -0.19,-8.26c-0.02,-1.05 -0.04,-2.09 -0.06,-3.17c-0.07,-3.48 -0.13,-6.96 -0.18,-10.45c-0.03,-1.21 -0.05,-2.42 -0.07,-3.67c-0.47,-27.73 -0.53,-55.45 -0.51,-83.18c0,-4.08 0,-8.16 0,-12.24c0,-0.69 0,-1.38 0,-2.09c0,-1.4 0,-2.81 -0.01,-4.21c0,-12.95 0.01,-25.9 0.01,-38.85c0.01,-11.03 0,-22.06 0,-33.09c-0.01,-12.97 -0.01,-25.94 0,-38.9c0,-1.39 0,-2.78 0,-4.17c0,-0.68 0,-1.36 0,-2.06c0,-4.73 0,-9.47 -0.01,-14.2c0,-6.38 0,-12.76 0.01,-19.14c0,-2.31 0,-4.62 0,-6.94c-0.01,-12.21 0.13,-24.41 0.54,-36.62c0.03,-1.11 0.06,-2.22 0.1,-3.36c1.03,-27.72 13.12,-51.59 32.95,-70.85c24.89,-22.56 55.2,-25.51 87.29,-25.86c3.59,-0.05 7.19,-0.09 10.78,-0.15c2.23,-0.03 4.45,-0.05 6.67,-0.08c1,-0.01 2,-0.02 3.02,-0.04c0.88,-0.01 1.76,-0.02 2.66,-0.03c2.17,-0.01 2.17,-0.01 4.12,-1.14c0.01,-0.55 0.01,-1.11 0.02,-1.68c0.06,-5.89 0.15,-11.78 0.24,-17.67c0.04,-2.19 0.06,-4.37 0.09,-6.56c0.35,-32.4 4.79,-64.63 26.65,-90.09c0.84,-0.99 1.69,-1.99 2.55,-3.01c26.52,-30.44 64.61,-46.93 104.46,-49.7c30.39,-1.71 59.35,5.27 85.99,19.71zm-132,41c-1.49,0.83 -1.49,0.83 -3.02,1.68c-18.53,11.06 -30.9,27.75 -36.4,48.62c-1.47,6.84 -1.73,13.36 -1.71,20.34c0,1 0,2.01 -0.01,3.04c0,2.11 0.01,4.23 0.01,6.34c0.01,3.23 0,6.47 -0.01,9.71c0,2.05 0.01,4.11 0.01,6.16c0,0.97 -0.01,1.94 -0.01,2.94c0,0.89 0.01,1.79 0.01,2.72c0,0.79 0,1.58 0,2.39c0.05,2.26 0.05,2.26 1.13,5.06c2.97,1.48 5.98,1.15 9.24,1.15c0.75,0 1.51,0 2.28,0.01c2.54,0.01 5.08,0.01 7.63,0.02c1.81,0 3.63,0.01 5.45,0.02c4.94,0.01 9.88,0.02 14.83,0.03c3.08,0.01 6.17,0.01 9.26,0.02c9.65,0.02 19.3,0.03 28.95,0.04c11.15,0.01 22.3,0.04 33.46,0.08c8.61,0.03 17.22,0.04 25.83,0.05c5.15,0 10.3,0.01 15.45,0.03c4.84,0.03 9.68,0.03 14.52,0.02c1.78,0 3.56,0.01 5.34,0.02c2.42,0.02 4.84,0.01 7.27,0c0.71,0.01 1.41,0.02 2.14,0.03c3.38,-0.04 5.08,-0.31 7.79,-2.41c1.82,-2.46 2.07,-3.67 2.08,-6.7c0.02,-1.36 0.02,-1.36 0.04,-2.75c-0.01,-0.97 -0.02,-1.95 -0.03,-2.95c0.01,-1.02 0.01,-2.04 0.01,-3.09c0.01,-2.17 0,-4.33 -0.02,-6.5c-0.02,-3.25 0,-6.5 0.03,-9.76c0.03,-24.92 -5.24,-44.7 -23.11,-62.98c-34.57,-33.01 -87.88,-36.3 -128.44,-13.38zm-178.31,174.5c-0.92,1.15 -1.81,2.32 -2.69,3.5c-0.43,0.56 -0.86,1.11 -1.3,1.69c-8.67,12.42 -9.85,27.3 -9.83,41.95c-0.01,1.26 -0.01,2.52 -0.01,3.82c-0.01,3.49 -0.01,6.98 -0.01,10.47c0,3.77 0,7.54 -0.01,11.31c0,7.38 -0.01,14.76 -0.01,22.14c0,6 0,12.01 0,18.01c-0.01,17.04 -0.02,34.07 -0.02,51.11c0,0.92 0,1.84 0,2.78c0,0.92 0,1.84 0,2.79c0.01,14.88 0,29.76 -0.02,44.64c-0.01,15.3 -0.02,30.6 -0.02,45.9c0,8.58 0,17.16 -0.01,25.74c-0.01,7.31 -0.01,14.62 -0.01,21.93c0.01,3.72 0.01,7.45 0,11.17c-0.01,4.05 0,8.1 0,12.15c0,1.16 -0.01,2.32 -0.01,3.52c0.08,20.12 4.96,36.97 18.7,52.07c4.15,3.97 8.48,6.72 13.56,9.31c0.64,0.33 1.28,0.65 1.94,0.99c10.24,4.85 20.88,4.8 32,4.78c1.61,0 3.22,0.01 4.83,0.01c4.4,0.01 8.81,0.01 13.21,0.01c4.76,0 9.52,0.01 14.28,0.02c9.31,0.02 18.63,0.02 27.94,0.02c7.58,0.01 15.15,0.01 22.73,0.02c21.5,0.01 42.99,0.02 64.49,0.02c1.16,0 2.32,0 3.51,0c1.74,0 1.74,0 3.51,0c18.79,0 37.57,0.02 56.35,0.05c19.31,0.03 38.61,0.04 57.92,0.04c10.83,0 21.66,0 32.49,0.02c9.23,0.02 18.45,0.03 27.67,0.01c4.7,0 9.4,0 14.1,0.01c4.32,0.02 8.63,0.02 12.94,0c1.55,0 3.1,0 4.65,0.01c17.26,0.12 33.53,-3.05 46.69,-15.13c14.26,-15.39 18.08,-34.25 18.01,-54.57c0,-1.27 0.01,-2.54 0.01,-3.86c0.01,-3.5 0.01,-7 0.01,-10.5c-0.01,-3.79 0,-7.58 0.01,-11.37c0.01,-7.41 0.01,-14.82 0.01,-22.23c0,-6.03 0,-12.06 0.01,-18.09c0,-1.29 0,-1.29 0,-2.6c0,-1.75 0,-3.5 0,-5.24c0.01,-16.37 0.01,-32.73 0,-49.1c0,-14.94 0.01,-29.89 0.03,-44.84c0.02,-15.37 0.03,-30.74 0.02,-46.12c0,-8.62 0,-17.24 0.02,-25.86c0.01,-7.34 0.01,-14.68 0,-22.02c-0.01,-3.74 -0.01,-7.47 0,-11.21c0.08,-23.49 0.04,-44.64 -17.05,-62.71c-12.73,-12.71 -28.66,-17.35 -46.23,-17.4c-1.49,-0.01 -1.49,-0.01 -3.02,-0.02c-2.09,-0.01 -4.18,-0.01 -6.27,-0.01c-3.2,-0.01 -6.4,-0.04 -9.6,-0.08c-2.03,-0.01 -4.07,-0.01 -6.11,-0.01c-0.95,-0.02 -1.91,-0.03 -2.89,-0.04c-1.33,0 -1.33,0 -2.69,0.01c-0.78,0 -1.56,0 -2.36,0c-3.09,0.7 -4.26,1.99 -6.16,4.49c-0.58,2.55 -0.58,2.55 -0.48,5.36c-0.01,1.61 -0.01,1.61 -0.02,3.25c0.01,1.73 0.01,1.73 0.03,3.5c-0.01,1.19 -0.01,2.38 -0.02,3.61c-0.03,5.11 -0.01,10.22 0,15.32c0,3.73 -0.02,7.46 -0.04,11.19c0.02,1.72 0.02,1.72 0.03,3.47c-0.05,8.36 -1.87,14.07 -6.25,21.11c-4.85,4.72 -9.49,6.44 -16.25,6.69c-6.51,-0.26 -11.15,-1.57 -15.75,-6.3c-6.49,-8.03 -6.53,-15.84 -6.52,-25.81c-0.02,-2.47 -0.04,-4.94 -0.07,-7.41c-0.02,-3.88 -0.04,-7.76 -0.04,-11.64c-0.01,-3.75 -0.04,-7.51 -0.08,-11.26c0.01,-1.75 0.01,-1.75 0.01,-3.53c-0.01,-1.08 -0.02,-2.16 -0.04,-3.27c0,-0.95 0,-1.9 0,-2.88c-0.3,-2.47 -0.3,-2.47 -2.08,-4.03c-3.27,-1.85 -6.21,-1.79 -9.87,-1.76c-1.13,-0.01 -1.13,-0.01 -2.28,-0.01c-2.52,-0.02 -5.04,-0.01 -7.56,0c-1.81,-0.01 -3.62,-0.02 -5.42,-0.02c-4.91,-0.02 -9.82,-0.02 -14.73,-0.02c-4.09,0.01 -8.19,0 -12.29,0c-9.66,-0.02 -19.32,-0.02 -28.98,-0.01c-9.97,0.02 -19.94,0 -29.91,-0.03c-8.56,-0.02 -17.12,-0.02 -25.67,-0.02c-5.12,0.01 -10.23,0 -15.34,-0.01c-4.81,-0.02 -9.62,-0.02 -14.42,0c-1.77,0.01 -3.53,0 -5.3,-0.01c-2.41,-0.01 -4.81,0 -7.22,0.02c-1.05,-0.02 -1.05,-0.02 -2.13,-0.03c-3.35,0.05 -5.05,0.33 -7.74,2.4c-1.99,2.7 -2.06,4.23 -2.04,7.57c0,1.08 0,2.17 -0.01,3.29c0.02,1.76 0.02,1.76 0.05,3.56c-0.01,2.49 -0.02,4.99 -0.03,7.48c0.01,3.92 0.02,7.85 0.04,11.77c0.02,3.79 0,7.58 -0.01,11.37c0.02,1.75 0.02,1.75 0.05,3.52c-0.05,8.14 -1.53,15.01 -7.1,21.22c-5.68,5.04 -11.18,5.82 -18.52,5.65c-5.49,-0.55 -9.12,-2.12 -12.75,-6.32c-6.06,-8.54 -6.54,-16.16 -6.56,-26.37c-0.02,-2.43 -0.05,-4.85 -0.07,-7.27c-0.03,-3.81 -0.06,-7.62 -0.08,-11.43c-0.02,-3.68 -0.06,-7.37 -0.1,-11.05c0,-1.72 0,-1.72 0,-3.47c-0.02,-1.58 -0.02,-1.58 -0.04,-3.2c0,-0.94 -0.01,-1.87 -0.01,-2.83c-0.22,-2.39 -0.22,-2.39 -1.63,-4.16c-2.25,-1.54 -3.63,-1.59 -6.34,-1.6c-0.93,-0.02 -1.86,-0.03 -2.82,-0.04c-1.51,0 -1.51,0 -3.05,0.01c-1.04,-0.01 -2.09,-0.01 -3.17,-0.02c-2.22,-0.01 -4.44,0 -6.66,0c-3.35,0.01 -6.7,-0.02 -10.04,-0.05c-22.39,-0.07 -42.36,3.49 -57.99,21z" fill="#0BA9B5" id="svg_14"/>
    <path d="m838.56,652.84c28.87,-0.9 56.31,9.43 77.45,28.89c13.85,13.37 23.7,30.09 24.43,49.71c-0.36,13.07 -5.27,23.89 -14.69,32.81c-9.55,8.03 -19.77,11.18 -32.19,10.69c-22,-2.27 -37.37,-20.36 -50.99,-36.13c-2.1,-2.42 -4.27,-4.77 -6.44,-7.12c-3.23,-3.53 -6.3,-7.11 -9.25,-10.87c-4.09,-5.07 -8.54,-9.7 -13.13,-14.32c-1.03,-1.04 -1.03,-1.04 -2.08,-2.1c-5.98,-6.24 -5.98,-6.24 -13.98,-8.52c-5.16,1.57 -7.9,4.39 -11.69,8.12c-0.92,0.85 -1.84,1.7 -2.79,2.57c-22.37,20.97 -33.52,48.9 -39.21,78.43c-0.13,0.69 -0.27,1.38 -0.41,2.09c-7.37,40.04 1.75,83.38 24.5,117c11.23,15.97 11.23,15.97 26.91,26.91c5.72,0.91 9.37,-0.8 14,-4c2.06,-1.84 3.87,-3.85 5.69,-5.93c1.04,-1.16 2.08,-2.32 3.12,-3.48c0.52,-0.59 1.05,-1.18 1.59,-1.79c2.09,-2.34 4.23,-4.65 6.37,-6.94c6.72,-7.24 13.21,-14.64 19.61,-22.17c0.47,-0.56 0.94,-1.11 1.43,-1.69c3,-3.54 5.89,-7.16 8.75,-10.81c8.04,-9.82 19.45,-18.67 32.44,-20.19c14.73,-1.04 27.45,1.04 39,11c8.35,7.86 13.16,17.54 14,29c0.19,20.95 -9.33,36.84 -23.37,51.69c-19.3,18.46 -47.96,29.74 -74.57,29.69c-0.98,0 -1.97,0 -2.99,-0.01c-12.45,-0.2 -24.28,-2.7 -36.07,-6.62c-7.07,-2.31 -13.76,-2.43 -21.08,-1.25c-20.59,2.63 -41.2,0.69 -59.92,-8.5c-1.04,-0.5 -2.09,-1 -3.16,-1.52c-34.27,-17.42 -57.26,-50.75 -68.95,-86.59c-2.51,-8.17 -4.31,-16.49 -5.89,-24.89c-0.37,-1.88 -0.37,-1.88 -0.74,-3.81c-7.29,-45.82 3.81,-95.4 30.74,-133.19c2.84,-3.5 5.88,-6.74 9,-10c1.11,-1.33 2.22,-2.66 3.31,-4c16.81,-19.11 42.48,-32.24 67.69,-35c3.48,-0.16 6.96,-0.19 10.44,-0.18c0.97,-0.01 1.93,-0.01 2.93,-0.01c5.89,0.04 11.56,0.43 17.38,1.32c6.34,0.9 11.16,0.77 17.25,-1.13c1.56,-0.47 1.56,-0.47 3.15,-0.96c2.23,-0.69 4.46,-1.38 6.68,-2.09c8.45,-2.53 16.95,-3.55 25.73,-4.11zm-6.56,30.16c1.14,1.24 2.27,2.47 3.4,3.71c1,1.09 2,2.18 2.99,3.26c2.37,2.59 4.74,5.17 7.15,7.72c8.86,9.46 16.31,19.95 23.9,30.44c1.19,1.62 2.37,3.25 3.56,4.87c0.41,0.58 0.82,1.16 1.25,1.76c4.36,5.77 11.61,11.51 18.92,12.55c7.16,0.38 11.49,-1.55 16.83,-6.31c2.83,-3.53 3.52,-6.54 4,-11c-2.28,-13.99 -10.93,-24.63 -22,-33c-14.99,-9.99 -31.43,-16.07 -49.5,-16.25c-0.8,-0.01 -1.6,-0.01 -2.43,-0.02c-4.51,-0.16 -4.51,-0.16 -8.07,2.27zm-116,23c-0.82,0.71 -1.64,1.41 -2.49,2.13c-28.53,24.94 -40.9,59.78 -43.51,96.87c-1.86,39.65 8.4,77.18 35.27,107.02c0.91,0.99 1.82,1.99 2.73,2.98c0.62,0.7 1.23,1.4 1.86,2.11c10.83,11.69 28.41,21.82 44.38,23.07c1.59,0.01 3.18,-0.07 4.76,-0.18c-0.38,-0.58 -0.75,-1.17 -1.14,-1.77c-32.32,-50.41 -52.5,-102.72 -39.83,-163.31c6.84,-30.43 21.35,-58.46 39.42,-83.68c1.65,-1.92 1.65,-1.92 1.55,-3.24c-15.42,-0.72 -31.78,8.2 -43,18zm146.45,202.14c-2.4,3.09 -4.87,6.13 -7.32,9.18c-4.43,5.51 -8.77,11.07 -13.07,16.68c-0.53,0.7 -1.06,1.39 -1.61,2.11c-3.23,4.24 -6.37,8.54 -9.45,12.89c27.41,-1.27 52.76,-7.14 72,-28.18c5.68,-6.86 11,-15.69 11,-24.82c-1.99,-6.43 -5.18,-10.14 -10.75,-13.81c-18.33,-6.69 -31.1,13.32 -40.8,25.95z" fill="#12A89F" id="svg_15"/>
   </g>
  </g>
  <path d="m42.44,163.97l-3.06,-5.34l-0.78,0l0,5.34l-3.42,0l0,-14.14l5.84,0a6.3,6.3 0 0 1 2.84,0.58a4,4 0 0 1 1.74,1.59a4.55,4.55 0 0 1 0.58,2.31a4.11,4.11 0 0 1 -0.85,2.62a4.34,4.34 0 0 1 -2.47,1.48l3.36,5.56l-3.78,0zm-3.84,-7.68l2.12,0a2.13,2.13 0 0 0 1.5,-0.45a1.74,1.74 0 0 0 0.48,-1.33a1.76,1.76 0 0 0 -0.49,-1.32a2.05,2.05 0 0 0 -1.49,-0.48l-2.12,0l0,3.58zm12.72,-6.46l0,14.14l-3.42,0l0,-14.14l3.42,0zm15.08,7.04a7.5,7.5 0 0 1 -0.89,3.69a6.23,6.23 0 0 1 -2.56,2.51a8.16,8.16 0 0 1 -3.93,0.9l-5.34,0l0,-14.14l5.34,0a8.3,8.3 0 0 1 3.94,0.88a6.14,6.14 0 0 1 2.55,2.48a7.44,7.44 0 0 1 0.89,3.68zm-7.68,4.04a4.32,4.32 0 0 0 3.11,-1.06a3.92,3.92 0 0 0 1.11,-2.98a3.92,3.92 0 0 0 -1.11,-2.98a4.32,4.32 0 0 0 -3.11,-1.06l-1.62,0l0,8.08l1.62,0zm13.04,-8.36l0,2.96l4.78,0l0,2.58l-4.78,0l0,3.14l5.38,0l0,2.74l-8.8,0l0,-14.14l8.8,0l0,2.72l-5.38,0zm14.58,11.42l-3.06,-5.34l-0.78,0l0,5.34l-3.42,0l0,-14.14l5.84,0a6.3,6.3 0 0 1 2.84,0.58a4,4 0 0 1 1.74,1.59a4.55,4.55 0 0 1 0.58,2.31a4.11,4.11 0 0 1 -0.85,2.62a4.34,4.34 0 0 1 -2.47,1.48l3.36,5.56l-3.78,0zm-3.84,-7.68l2.12,0a2.13,2.13 0 0 0 1.5,-0.45a1.74,1.74 0 0 0 0.48,-1.33a1.76,1.76 0 0 0 -0.49,-1.32a2.05,2.05 0 0 0 -1.49,-0.48l-2.12,0l0,3.58zm22.06,5.1l-5.3,0l-0.88,2.58l-3.6,0l5.18,-14.04l3.94,0l5.18,14.04l-3.64,0l-0.88,-2.58zm-0.88,-2.6l-1.76,-5.2l-1.78,5.2l3.54,0zm10.14,0.22l0,4.96l-3.42,0l0,-14.14l5.54,0a5.38,5.38 0 0 1 3.84,1.25a4.42,4.42 0 0 1 1.32,3.37a4.64,4.64 0 0 1 -0.59,2.35a4.09,4.09 0 0 1 -1.75,1.62a6.17,6.17 0 0 1 -2.82,0.59l-2.12,0zm1.74,-2.74q2.06,0 2.06,-1.82q0,-1.86 -2.06,-1.86l-1.74,0l0,3.68l1.74,0zm10.64,2.74l0,4.96l-3.42,0l0,-14.14l5.54,0a5.38,5.38 0 0 1 3.84,1.25a4.42,4.42 0 0 1 1.32,3.37a4.64,4.64 0 0 1 -0.59,2.35a4.09,4.09 0 0 1 -1.75,1.62a6.17,6.17 0 0 1 -2.82,0.59l-2.12,0zm1.74,-2.74q2.06,0 2.06,-1.82q0,-1.86 -2.06,-1.86l-1.74,0l0,3.68l1.74,0z" data-name="RIDER APP" fill="#fff" id="RIDER_APP"/>
  <text fill="#000000" font-family="Serif" font-size="24" id="svg_1" stroke-width="0" text-anchor="middle" transform="matrix(1 0 0 1 1506.15 -2447.34)" x="-129.87" xml:space="preserve" y="-127.71">camp</text>
  <text fill="#000000" font-family="Sans-serif" font-size="19.15" font-weight="bold" id="svg_4" letter-spacing="0" stroke-width="0" text-anchor="middle" transform="matrix(1 0 0 1 0 0)" x="90.21" xml:space="preserve" y="124.29">Campus Connect</text>
 </g>
</svg>
