<svg width="179.11" height="179.11" xmlns="http://www.w3.org/2000/svg" xmlns:svg="http://www.w3.org/2000/svg">
  <g class="layer" display="inline">
    <title>Layer 1</title>
    <rect data-name="Rectangle 17510" fill="#f4f4f4" height="173" id="Rectangle_17510" rx="30" transform="matrix(1 0 0 1 46 -48)" width="179" x="-46" y="51"/>
    <path d="m0,135.77l179.11,0a0,0 0 0 1 0,0l0,13.34a30,30 0 0 1 -30,30l-119.11,0a30,30 0 0 1 -30,-30l0,-13.34a0,0 0 0 1 0,0z" data-name="Rectangle 17511" fill="#00a8b5" id="Rectangle_17511"/>
    <path d="m27.45,162.97l0,4.96l-3.42,0l0,-14.14l5.54,0a5.38,5.38 0 0 1 3.84,1.25a4.42,4.42 0 0 1 1.32,3.37a4.64,4.64 0 0 1 -0.59,2.35a4.09,4.09 0 0 1 -1.75,1.62a6.17,6.17 0 0 1 -2.82,0.59l-2.12,0zm1.74,-2.74q2.06,0 2.06,-1.82q0,-1.86 -2.06,-1.86l-1.74,0l0,3.68l1.74,0zm15.98,5.12l-5.3,0l-0.88,2.58l-3.6,0l5.18,-14.04l3.94,0l5.18,14.04l-3.64,0l-0.88,-2.58zm-0.88,-2.6l-1.76,-5.2l-1.78,5.2l3.54,0zm13.98,5.18l-3.06,-5.34l-0.78,0l0,5.34l-3.42,0l0,-14.14l5.84,0a6.3,6.3 0 0 1 2.84,0.58a4,4 0 0 1 1.74,1.59a4.55,4.55 0 0 1 0.58,2.31a4.11,4.11 0 0 1 -0.85,2.62a4.34,4.34 0 0 1 -2.47,1.48l3.36,5.56l-3.78,0zm-3.84,-7.68l2.12,0a2.13,2.13 0 0 0 1.5,-0.45a1.74,1.74 0 0 0 0.48,-1.33a1.76,1.76 0 0 0 -0.49,-1.32a2.05,2.05 0 0 0 -1.49,-0.48l-2.12,0l0,3.58zm19.46,-6.46l0,2.72l-3.84,0l0,11.42l-3.44,0l0,-11.42l-3.8,0l0,-2.72l11.08,0zm14,14.14l-3.42,0l-5.72,-8.68l0,8.68l-3.42,0l0,-14.14l3.42,0l5.72,8.76l0,-8.76l3.42,0l0,14.14zm5.78,-11.42l0,2.96l4.78,0l0,2.58l-4.78,0l0,3.14l5.38,0l0,2.74l-8.8,0l0,-14.14l8.8,0l0,2.72l-5.38,0zm14.58,11.42l-3.06,-5.34l-0.78,0l0,5.34l-3.42,0l0,-14.14l5.84,0a6.3,6.3 0 0 1 2.84,0.58a4,4 0 0 1 1.74,1.59a4.55,4.55 0 0 1 0.58,2.31a4.11,4.11 0 0 1 -0.85,2.62a4.34,4.34 0 0 1 -2.47,1.48l3.36,5.56l-3.78,0zm-3.84,-7.68l2.12,0a2.13,2.13 0 0 0 1.5,-0.45a1.74,1.74 0 0 0 0.48,-1.33a1.76,1.76 0 0 0 -0.49,-1.32a2.05,2.05 0 0 0 -1.49,-0.48l-2.12,0l0,3.58zm22.06,5.1l-5.3,0l-0.88,2.58l-3.6,0l5.18,-14.04l3.94,0l5.18,14.04l-3.64,0l-0.88,-2.58zm-0.88,-2.6l-1.76,-5.2l-1.78,5.2l3.54,0zm10.14,0.22l0,4.96l-3.42,0l0,-14.14l5.54,0a5.38,5.38 0 0 1 3.84,1.25a4.42,4.42 0 0 1 1.32,3.37a4.64,4.64 0 0 1 -0.59,2.35a4.09,4.09 0 0 1 -1.75,1.62a6.17,6.17 0 0 1 -2.82,0.59l-2.12,0zm1.74,-2.74q2.06,0 2.06,-1.82q0,-1.86 -2.06,-1.86l-1.74,0l0,3.68c0.58,0 1.16,0 1.74,0zm10.64,2.74l0,4.96l-3.42,0l0,-14.14l5.54,0a5.38,5.38 0 0 1 3.84,1.25a4.42,4.42 0 0 1 1.32,3.37a4.64,4.64 0 0 1 -0.59,2.35a4.09,4.09 0 0 1 -1.75,1.62a6.17,6.17 0 0 1 -2.82,0.59l-2.12,0zm1.74,-2.74q2.06,0 2.06,-1.82q0,-1.86 -2.06,-1.86l-1.74,0l0,3.68l1.74,0z" data-name="Path 14491" fill="#fff" id="Path_14491"/>
    <g data-name="Group 7467" id="Group_7467" transform="translate(-2 -9) matrix(1 0 0 1 45 35)">
      <g data-name="Group 7466" id="Group_7466" transform="translate(0.658 0)">
        <path d="m91.66,25.16a1.91,1.91 0 0 1 1.82,2.19q0.01,5.7 0,11.41c0,1.47 -0.71,2.15 -2.21,2.15q-4.56,0.02 -9.13,0a3.69,3.69 0 0 1 -4,-4.04c0,-0.34 0,-0.67 0,-1.15l-3.71,1.99c0.54,0.57 1.07,1.1 1.56,1.66a5.99,5.99 0 0 1 -6.48,9.61c-0.37,-0.13 -0.74,-0.44 -1,0.24a6,6 0 0 1 -9.84,1.88c-0.15,-0.15 -0.31,-0.28 -0.52,-0.46a6.13,6.13 0 0 1 -3.82,3.54a5.38,5.38 0 0 1 -3.92,-0.12c-0.54,-0.25 -0.76,-0.14 -1.1,0.4c-1.15,1.82 -2.33,3.67 -4.46,4.53a5.84,5.84 0 0 1 -7.72,-3.92a0.85,0.85 0 0 0 -0.89,-0.73a5.63,5.63 0 0 1 -5.3,-4.49c-0.12,-0.45 -0.3,-0.54 -0.72,-0.57a5.65,5.65 0 0 1 -5.41,-4.46c-0.12,-0.48 -0.33,-0.6 -0.8,-0.63a5.71,5.71 0 0 1 -5.4,-4.57c-0.27,-1.17 -1.42,-1.4 -2.25,-1.96a4.74,4.74 0 0 0 -0.98,-0.37a3.79,3.79 0 0 1 -2.81,3.51a4.8,4.8 0 0 1 -1.36,0.12c-2.89,0 -5.78,-0.04 -8.67,0.02a2.49,2.49 0 0 1 -2.55,-1.31l0,-12.6c0.4,-1.16 0.78,-1.43 2.07,-1.5a2.15,2.15 0 0 1 1.86,2.42c0.03,2.55 0,5.11 0.01,7.66c0,1.3 0.05,1.35 1.32,1.35c1.68,0 3.35,0.01 5.02,0c1,-0.01 1.1,-0.11 1.11,-1.1c0.02,-2.31 0.01,-4.62 0.01,-6.93q0,-12.04 0,-24.08c0,-0.28 -0.02,-0.55 0,-0.82c0.05,-0.76 -0.32,-1.01 -1.04,-1c-1.8,0.02 -3.59,0 -5.38,0.01c-0.94,0.01 -1.03,0.09 -1.03,1.07c-0.02,2.61 0.01,5.23 -0.02,7.84a2.42,2.42 0 0 1 -0.88,2.22a2.15,2.15 0 0 1 -1.92,0.29c-0.6,-0.21 -0.9,-0.64 -1.13,-1.49l0,-12.6a2.31,2.31 0 0 1 2.41,-1.37c2.98,0.03 5.96,0 8.94,0.02a3.58,3.58 0 0 1 3.91,3.06c0.14,0.56 0.43,0.45 0.77,0.47a48.32,48.32 0 0 0 13,-1.34a82.44,82.44 0 0 1 11.29,-1.96a25.17,25.17 0 0 1 11.4,1.91a4.67,4.67 0 0 0 1.84,0.37q11.95,-0.01 23.9,0a1.2,1.2 0 0 0 1.27,-0.73a3,3 0 0 1 2.62,-1.73c3.43,-0.07 6.87,-0.07 10.3,-0.03a1.75,1.75 0 0 1 1.83,1.95q0.03,5.84 0,11.68c-0.01,1.2 -0.54,1.74 -1.82,2c-0.84,0.33 -1.31,-0.21 -1.73,-0.79a2.91,2.91 0 0 1 -0.38,-1.75c0,-2.65 0,-5.3 -0.01,-7.95c0,-1.06 -0.1,-1.14 -1.14,-1.15q-2.6,-0.02 -5.2,0c-0.99,0.01 -1.09,0.11 -1.1,1.11c-0.02,1.34 -0.01,2.68 -0.01,4.02q0,13.5 0,27.01c0,0.37 0,0.73 0.02,1.1a0.63,0.63 0 0 0 0.69,0.67q3.01,0.04 6.03,0c0.71,-0.01 0.71,-0.53 0.71,-1.03c0.01,-2.71 0,-5.42 0.01,-8.13a3.64,3.64 0 0 1 0.28,-1.69a1.57,1.57 0 0 1 1.84,-0.93z" data-name="Path 13571" fill="#2c272e" id="Path_13571"/>
        <path d="m260.28,281.11l0,-0.91a1.83,1.83 0 0 1 1.89,-1.6a2.08,2.08 0 0 1 1.94,1.76a2.04,2.04 0 0 1 -1,2a1.79,1.79 0 0 1 -0.96,0.27a1.76,1.76 0 0 1 -1.87,-1.52z" data-name="Path 13572" fill="#010101" id="Path_13572" transform="translate(-260.278 -259.658)"/>
        <path d="m91.66,26.16c-1.37,0.3 -1.82,0.85 -1.82,2.28c-0.01,3.02 -0.02,6.03 0.01,9.04c0.01,0.64 -0.16,0.81 -0.8,0.8c-2.16,-0.04 -4.32,-0.03 -6.48,0c-0.57,0.01 -0.78,-0.1 -0.78,-0.73q0.03,-16.57 0,-33.13c0,-0.61 0.17,-0.77 0.77,-0.76q3.23,0.05 6.47,0c0.63,-0.01 0.83,0.16 0.82,0.8c-0.03,2.98 -0.02,5.96 -0.01,8.94c0,1.44 0.46,2 1.82,2.28q0,1.71 0,3.41c-0.1,0.3 -0.38,0.37 -0.62,0.48a1.49,1.49 0 0 0 -0.93,1.43a1.55,1.55 0 0 0 0.98,1.4c0.21,0.1 0.49,0.12 0.58,0.39q-0.01,1.69 -0.01,3.37z" data-name="Path 13573" fill="#dd4a48" id="Path_13573"/>
        <path d="m831.9,283.26c-1.15,-0.24 -1.79,-0.87 -1.82,-1.79c-0.02,-0.9 0.56,-1.52 1.82,-1.91a2.23,2.23 0 0 1 1.6,1.04c0.6,1.18 -0.1,2.35 -1.6,2.66z" data-name="Path 13574" fill="#010101" id="Path_13574" transform="translate(-740.234 -260.461)"/>
        <path d="m44.8,4.14a23.21,23.21 0 0 0 -6.13,4.75c-4.07,4.06 -8.18,8.08 -12.26,12.14a6.48,6.48 0 0 0 7.65,10.39c3.05,-1.69 6.08,-3.43 9.12,-5.15c1.37,-0.78 2.77,-1.52 4.11,-2.34a5.78,5.78 0 0 1 2.4,-0.64c2.65,-0.37 4.49,0.65 6.34,2.55c5.45,5.57 11.11,10.92 16.69,16.35a3.1,3.1 0 0 1 1.05,1.56a2.38,2.38 0 0 1 -1.02,2.54a2.45,2.45 0 0 1 -2.82,-0.16a9.01,9.01 0 0 1 -0.67,-0.62q-5.56,-5.4 -11.13,-10.81a2.43,2.43 0 0 0 -1.36,-0.84a1.72,1.72 0 0 0 -1.8,0.81a1.66,1.66 0 0 0 0.02,1.96a5.48,5.48 0 0 0 0.73,0.81q4.31,4.2 8.63,8.4a2.94,2.94 0 0 1 0.96,1.51a2.39,2.39 0 0 1 -0.96,2.48a2.46,2.46 0 0 1 -2.66,0.02a7.17,7.17 0 0 1 -0.89,-0.78q-6.55,-6.36 -13.1,-12.72a2.76,2.76 0 0 0 -1.34,-0.88a1.7,1.7 0 0 0 -1.84,0.7a1.62,1.62 0 0 0 -0.13,1.88a4.21,4.21 0 0 0 0.76,0.9q4.37,4.27 8.76,8.53a2.6,2.6 0 0 1 0.94,2.16a2.19,2.19 0 0 1 -1.47,2.02a2.28,2.28 0 0 1 -2.47,-0.44c-0.81,-0.74 -1.59,-1.51 -2.37,-2.28a5.96,5.96 0 0 0 -4.2,-1.89c-0.43,0 -0.56,-0.18 -0.67,-0.55a5.6,5.6 0 0 0 -5.46,-4.51c-0.46,-0.04 -0.58,-0.22 -0.69,-0.63a5.61,5.61 0 0 0 -5.43,-4.42a0.66,0.66 0 0 1 -0.72,-0.61a5.47,5.47 0 0 0 -4.05,-4.26a5.53,5.53 0 0 0 -5.82,1.65a26.81,26.81 0 0 0 -1.75,2.1c-0.24,0.32 -0.41,0.35 -0.74,0.14a9.15,9.15 0 0 0 -3.26,-1.33c-0.36,-0.07 -0.44,-0.25 -0.42,-0.56c0.01,-0.15 0,-0.3 0,-0.46c0,-8.48 0.01,-16.97 -0.02,-25.46c0,-0.73 0.11,-1.01 0.92,-0.95a45.81,45.81 0 0 0 13.18,-1.35c3.2,-0.7 6.43,-1.28 9.67,-1.81a16.66,16.66 0 0 1 5.72,0.1z" data-name="Path 13575" fill="#fee0ae" id="Path_13575" transform="matrix(1 0 0 1 0 0)"/>
        <path d="m58.72,23.36c0.59,-0.03 1.01,-0.02 1.43,-0.08a1.77,1.77 0 0 0 0.2,-3.48a5.15,5.15 0 0 0 -1.17,-0.12c-3.53,-0.01 -7.06,0.01 -10.59,-0.01a4.19,4.19 0 0 0 -2.16,0.57q-6.97,3.96 -13.95,7.89a2.93,2.93 0 0 1 -3.42,0.01a2.74,2.74 0 0 1 -0.53,-4.01a15.44,15.44 0 0 1 1.2,-1.25c4.16,-4.11 8.33,-8.19 12.45,-12.32a14.32,14.32 0 0 1 10.56,-4.38q12.27,0.01 24.55,-0.01c0.75,0 0.88,0.23 0.87,0.92q-0.03,12.36 0,24.72a1.08,1.08 0 0 1 -0.66,1.13c-1.78,0.92 -3.53,1.88 -5.29,2.84c-0.34,0.18 -0.58,0.28 -0.93,-0.07q-6.12,-6 -12.28,-11.98a3.83,3.83 0 0 1 -0.28,-0.37z" data-name="Path 13576" fill="#fedb9f" id="Path_13576"/>
        <path d="m271.82,197.06q0,-1.83 0,-3.66c1.49,-0.45 1.82,-0.9 1.82,-2.49c0,-2.83 0.03,-5.66 -0.01,-8.49c-0.01,-0.65 0.19,-0.81 0.82,-0.8c2.1,0.04 4.2,0.05 6.3,0c0.76,-0.02 0.95,0.18 0.95,0.95q-0.04,15.1 -0.02,30.21c0,0.94 -0.02,1.88 0.01,2.83c0.01,0.45 -0.08,0.64 -0.59,0.63c-2.28,-0.02 -4.57,-0.03 -6.85,0c-0.59,0.01 -0.61,-0.25 -0.61,-0.71q0.02,-4.33 0,-8.67c0,-1.34 -0.49,-1.9 -1.83,-2.19q0,-1.95 0,-3.91c1.16,-0.23 1.8,-0.86 1.82,-1.78c0.03,-0.91 -0.56,-1.53 -1.81,-1.92z" data-name="Path 13577" fill="#dd4a48" id="Path_13577" transform="translate(-269.99 -177.963)"/>
        <path d="m519.74,485.87a2.05,2.05 0 0 1 -1.73,-3.08a8.91,8.91 0 0 1 2.07,-2.51a2.1,2.1 0 0 1 3.32,2.19a7.32,7.32 0 0 1 -2.59,3.19a1.62,1.62 0 0 1 -1.07,0.21z" data-name="Path 13578" fill="#fedb9f" id="Path_13578" transform="translate(-477.144 -429.136)"/>
        <path d="m24.35,41.55a2.09,2.09 0 0 1 -1.98,-2.98a8.12,8.12 0 0 1 2.17,-2.65a2.09,2.09 0 0 1 3.29,2.11a6.7,6.7 0 0 1 -2.67,3.33a1.1,1.1 0 0 1 -0.81,0.19z" data-name="Path 13579" fill="#fedb9f" id="Path_13579" transform="matrix(1 0 0 1 0 0)"/>
        <path d="m439.72,419.58a1.83,1.83 0 0 1 0.43,-1.27a19.49,19.49 0 0 1 1.56,-1.89a2.13,2.13 0 0 1 3.28,2.71a9.56,9.56 0 0 1 -1.9,2.18a1.95,1.95 0 0 1 -2.21,0.17a2.1,2.1 0 0 1 -1.16,-1.9z" data-name="Path 13580" fill="#fedb9f" id="Path_13580" transform="translate(-411.422 -375.106)"/>
        <path d="m484.49,449.78a1.78,1.78 0 0 1 -0.31,1.12a11.55,11.55 0 0 1 -1.91,2.3a2.11,2.11 0 0 1 -3.21,-2.65a10.84,10.84 0 0 1 1.95,-2.38a1.92,1.92 0 0 1 2.28,-0.26a2.06,2.06 0 0 1 1.2,1.87z" data-name="Path 13581" fill="#fedb9f" id="Path_13581" transform="translate(-444.309 -402.052)"/>
      </g>
      <ellipse cx="2.25" cy="2.25" data-name="Ellipse 255" id="Ellipse_255" rx="2.25" ry="2.25" transform="translate(0 18.944)"/>
      <ellipse cx="2.25" cy="2.25" data-name="Ellipse 256" id="Ellipse_256" rx="2.25" ry="2.25" transform="translate(90.061 18.69)"/>
    </g>
    <text fill="#000000" font-family="Sans-serif" font-size="20.04" font-weight="bold" id="svg_3" stroke-width="0" text-anchor="middle" word-spacing="0" x="87.63" xml:space="preserve" y="119.45">Campus connect</text>
    <path d="m243.55,106.05c1.8,0 2.68,0 3.54,-0.22c0.75,-0.19 1.63,-0.52 2.62,-0.94c0.72,-0.3 1.45,-0.65 2.17,-0.97l0.69,-0.29l1.2,-0.4l0.73,-0.13" fill="none" id="svg_6"/>
  </g>
</svg>
